<?xml version="1.0" encoding="utf-8"?>
<!-- Generator: Adobe Illustrator 21.0.0, SVG Export Plug-In . SVG Version: 6.00 Build 0)  -->
<svg version="1.1" id="Layer_1" xmlns="http://www.w3.org/2000/svg" xmlns:xlink="http://www.w3.org/1999/xlink" x="0px" y="0px"
	 viewBox="0 0 645.2 644" style="enable-background:new 0 0 645.2 644;" xml:space="preserve">
<style type="text/css">
	.st0{opacity:0.5;fill:#363636;stroke:#12395F;stroke-width:3;stroke-linecap:round;stroke-linejoin:round;}
	
		.st1{opacity:0.5;fill:#363636;stroke:#12395F;stroke-width:3;stroke-linecap:round;stroke-linejoin:round;stroke-dasharray:0.2923,11.6745;}
	.st2{fill:#363636;}
	.st3{font-family:'Graphik-Medium';}
	.st4{font-size:29.23px;}
	.st5{font-size:26.7228px;}
	.st6{font-family:'Graphik-Regular';}
	.st7{font-size:27.0657px;}
	.st8{letter-spacing:-1;}
</style>
<title>404-chart</title>
<line class="st0" x1="622.2" y1="406.9" x2="622.1" y2="406.9"/>
<line class="st1" x1="610.4" y1="406.9" x2="89.8" y2="406.9"/>
<line class="st0" x1="84" y1="406.9" x2="83.8" y2="406.9"/>
<line class="st0" x1="622.2" y1="302.9" x2="622.1" y2="302.9"/>
<line class="st1" x1="610.4" y1="302.9" x2="89.8" y2="302.9"/>
<line class="st0" x1="84" y1="302.9" x2="83.8" y2="302.9"/>
<line class="st0" x1="622.2" y1="195.3" x2="622.1" y2="195.3"/>
<line class="st1" x1="610.4" y1="195.3" x2="89.8" y2="195.3"/>
<line class="st0" x1="84" y1="195.3" x2="83.8" y2="195.3"/>
<line class="st0" x1="621.6" y1="94.8" x2="621.5" y2="94.8"/>
<line class="st1" x1="608.8" y1="94.8" x2="88.2" y2="94.8"/>
<line class="st0" x1="83.4" y1="94.8" x2="83.2" y2="94.8"/>
<rect x="439.7" y="90.7" class="st2" width="76.4" height="421.8"/>
<rect x="83.8" y="512.5" class="st2" width="538.4" height="3.3"/>
<text transform="matrix(1 0 0 1 193.1095 562.5217)" class="st2 st3 st4">F</text>
<text transform="matrix(1 0 0 1 208.192 562.5217)" class="st2 st3 st4">ound</text>
<text transform="matrix(1 0 0 1 8.3332 64.9842)" class="st2 st3 st5"># of Pages </text>
<text transform="matrix(1 0 0 1 6.1686 426.6856)" class="st2 st6 st7 st8">0</text>
<text transform="matrix(1 0 0 1 23.2472 426.6856)" class="st2 st6 st7">.25</text>
<text transform="matrix(1 0 0 1 4.0031 321.5811)" class="st2 st6 st7 st8">0</text>
<text transform="matrix(1 0 0 1 21.0817 321.5811)" class="st2 st6 st7">.</text>
<text transform="matrix(1 0 0 1 28.3083 321.5811)" class="st2 st6 st7">5</text>
<text transform="matrix(1 0 0 1 44.0602 321.5811)" class="st2 st6 st7">0</text>
<text transform="matrix(1 0 0 1 8.3332 213.3755)" class="st2 st6 st7 st8">0</text>
<text transform="matrix(1 0 0 1 25.4118 213.3755)" class="st2 st6 st7 st8">.</text>
<text transform="matrix(1 0 0 1 31.1505 213.3755)" class="st2 st6 st7">75</text>
<text transform="matrix(1 0 0 1 8.3332 111.3668)" class="st2 st6 st7">1</text>
<text transform="matrix(1 0 0 1 18.5915 111.3668)" class="st2 st6 st7 st8">.</text>
<text transform="matrix(1 0 0 1 24.8708 111.3668)" class="st2 st6 st7">00</text>
<text transform="matrix(1 0 0 1 406.8847 562.5219)" class="st2 st3 st4">Not found</text>
</svg>
