<?xml version="1.0" encoding="utf-8"?>
<!-- Generator: Adobe Illustrator 21.0.0, SVG Export Plug-In . SVG Version: 6.00 Build 0)  -->
<svg version="1.1" id="Layer_1" xmlns="http://www.w3.org/2000/svg" xmlns:xlink="http://www.w3.org/1999/xlink" x="0px" y="0px"
	 viewBox="0 0 356 215" style="enable-background:new 0 0 356 215;" xml:space="preserve">
<style type="text/css">
	.st0{fill:#202126;}
</style>
<g>
	<path class="st0" d="M258.1,176.4l-27.2-0.2L187.6,52.7l26.9,0.2l30.1,98.7h0.5l31.7-98.2l16.6,0.1c-0.9-15.6-1.8-31.1-2.7-46.7
		C195.3,5.2,99.9,3.6,4.5,2c13,70.3,26.1,140.7,39.1,211c11.5-1.1,23-2.2,34.5-3.3c-8.3-6.5-13.8-15.2-15.2-25.2l25.4,0.2
		c3.5,10.3,14.7,17.2,29.1,17.3c19.8,0.2,31.6-11,31.7-27.8l0.2-20.2h-0.5c-7,13.3-21.6,21.9-39.2,21.8
		c-30.9-0.3-50.9-24.5-50.6-62.9c0.3-38.7,20.7-62.9,52.3-62.7c17.4,0.1,31.6,9,39,23.4h0.5l0.2-21.1l24.6,0.2l-1,120.9
		c-0.1,10.8-3.2,20.2-8.9,27.7c45.2-4.3,90.3-8.6,135.5-13c-2.1-37.2-4.3-74.4-6.4-111.6L258.1,176.4z"/>
	<path class="st0" d="M117.4,71.5C98,71.3,85.2,87.5,85,113.1c-0.2,25.7,12.3,41.5,31.7,41.7c19.8,0.2,32.9-15.8,33.1-41.2
		C150,88.4,137.1,71.7,117.4,71.5z"/>
</g>
<circle class="st0" cx="334.5" cy="158.2" r="18.1"/>
</svg>
