<?xml version="1.0" encoding="utf-8"?>
<!-- Generator: Adobe Illustrator 21.0.0, SVG Export Plug-In . SVG Version: 6.00 Build 0)  -->
<svg version="1.1" id="Layer_1" xmlns="http://www.w3.org/2000/svg" xmlns:xlink="http://www.w3.org/1999/xlink" x="0px" y="0px"
	 viewBox="0 0 612.1 562.8" style="enable-background:new 0 0 612.1 562.8;" xml:space="preserve">
<style type="text/css">
	.st0{fill:#D08A4B;}
	.st1{fill:#EB0B0A;}
	.st2{fill:#EB0C0B;}
	.st3{fill:#EB0D0C;}
	.st4{fill:#8C1D24;}
	.st5{fill:#90242B;}
	.st6{fill:#8D1F26;}
	.st7{fill:#8E1F26;}
	.st8{fill:#8D1E25;}
	.st9{fill:#91262D;}
	.st10{fill:#EB100F;}
	.st11{fill:#EB0E0D;}
	.st12{fill:#FCF4F4;}
	.st13{fill:#FDFCFC;}
	.st14{fill:#F9F5F5;}
</style>
<g>
	<g>
		<path class="st0" d="M292.5,372.3c-12.8,0-25.7,0-38.5,0c-8.1,0-9-1-9-8.9c0-15,0-30,0-45c0-25.8,20.1-46.6,46-47.7
			c12.2-0.5,17.3-5.9,17.3-18.2c0-7.7,0.1-15.3,0-23c-0.2-10-6.7-16.7-16-16.5c-9.1,0.2-15.2,6.9-15.3,16.8c0,1.2,0,2.3,0,3.5
			c0,11-0.7,11.7-11.5,11.8c-5.3,0-10.7,0-15.9-0.7c-1.7-0.2-4.2-2.7-4.3-4.2c-1.4-16,0.6-31.1,11.9-43.9
			c11.7-13.3,32.7-19.1,50.7-13.3c17.2,5.6,31.4,22.3,32.1,39.6c0.6,14.7,1.2,29.8-1.1,44.2c-3.5,21.4-23.6,36.3-45.2,36.4
			c-10.1,0.1-16.5,6.4-16.5,16.6c0,4.2,0,8.3,0,12.5c0.1,6.8,0.7,7.5,7.4,7.4c15.3,0,30.7,0,46,0c1.3,0,2.7,0,4,0.2
			c3.6,0.3,5.8,1.9,5.8,6c-0.1,6.5,0.4,13,0,19.4c-0.3,6.1-1.5,7-7.7,7C319.2,372.4,305.8,372.3,292.5,372.3z"/>
		<path class="st1" d="M321.5,536.9c-18.1,0-26.5-5.6-31.3-19.5c-1.2-3.5-3.6-3.5-6.2-3.7c-24.9-2.1-48.9-8-71.6-18.3
			c-60.7-27.6-102.2-72.9-124.6-135.8c-2-5.8-1-7.2,5.1-7.2c8.1-0.1,7.9,0,10.9,7.5c29.6,73.1,82.7,118.6,159.7,136
			c7,1.6,14.1,2.4,21.2,3c1.7,0.2,4.9-1.4,5.3-2.8c3.6-12.5,15.4-19.4,30.8-18.5c12.5,0.8,23.7,4.9,33.2,13.3
			c11.4,10.1,11.5,22.4,0.1,32.6C344.1,532.5,332,536.5,321.5,536.9z M303.7,507.7c-2.1-2.2-3.3-3.6-4.6-5c-1.2,1.4-3.2,2.8-3.3,4.3
			c-0.1,1.5,1.8,3.1,2.8,4.7C300.1,510.6,301.5,509.5,303.7,507.7z"/>
		<path class="st2" d="M335.3,73.4c-3.9,13.5-13.6,18.8-26.4,19.1c-13,0.3-26,0.1-39,0.1c-4.4,0-6.6-2.4-6.6-6.4
			c0.1-4,2.4-6.3,6.8-6.3c8.8,0.1,17.7,0,26.5,0c3,0,6.2-0.3,6.1-4.1c-0.1-3.5-3.2-3.6-6-3.6c-8.7,0.1-17.3-0.1-26,0.1
			c-4.5,0.1-7-1.9-7.4-6.2c-0.3-4,2.7-6.7,7.5-6.7c8.8,0,17.7-0.1,26.5,0c2.8,0,5.4-0.4,5.5-3.6c0.1-3.7-2.8-3.9-5.6-3.9
			c-8.8,0-17.7,0.1-26.5,0c-5.5-0.1-8.8-3.9-6.9-8.3c0.9-1.9,3.7-4.2,5.7-4.3c13.8-0.3,27.7-0.6,41.5,0C322,39.8,330.4,45,334.6,56
			c0.6,1.5,3,2.8,4.7,3.1c45.5,7.3,85.2,26.4,119.1,57.4c29.8,27.2,50.6,60.2,63.2,98.5c2,6.2,0.8,7.5-5.6,8.1c-5.6,0.5-8-1.8-10-7
			c-28.8-76.5-82.9-124-163-141.4C340.6,74.2,338.2,73.9,335.3,73.4z"/>
		<path class="st2" d="M305.8,473.1c-52.4-0.7-97.1-19.6-133.6-57.4c-4.6-4.7-4.9-9.7-1.1-13.1c3.9-3.5,8.3-2.7,13,2
			c36.8,36.9,81.3,55.5,133.4,51.3c64.5-5.2,111.4-38.2,140.5-96.1c0.8-1.6,1.5-3.4,2.6-4.8c2.7-3.2,6.2-3.9,9.9-2
			c3.7,1.9,5,5.3,4,9.3c-0.5,2.1-1.6,4-2.5,5.9c-30.2,60.1-78.7,94.6-145.3,103.9c-3.6,0.5-7.3,0.8-10.9,0.9
			C312.4,473.2,309.1,473.1,305.8,473.1z"/>
		<path class="st3" d="M310.6,103.9c45.2,0.6,88.3,18,124.3,52.8c4.4,4.2,4.8,9.1,1.2,12.7c-3.5,3.5-8.3,3-12.7-1.2
			c-28.8-27.9-63.1-44.2-103-47.4c-49.3-4-92.4,11.1-129.1,44.4c-0.7,0.7-1.4,1.4-2.2,2.1c-3.8,3.2-8.7,3.2-11.7,0.1
			c-3.3-3.3-3.2-8.4,0.7-12c6.3-5.7,12.6-11.4,19.5-16.3C229.8,115.7,265.9,104.1,310.6,103.9z"/>
		<path class="st3" d="M99.5,222.8c-4.9,0-9.7,0-15.2,0c1.8-5.5,3.2-10.7,5.1-15.7c28-72.1,78.9-119.8,153.1-142.2
			c1.1-0.3,2.3-0.5,3.4-0.8c4.3-1,7.2,0.8,8.7,4.6c1.5,3.6-0.5,7.8-4.6,9.3c-4,1.5-8.3,2.3-12.4,3.8
			c-67.9,23.8-113.4,69.8-137,137.6C100.3,220.5,99.9,221.6,99.5,222.8z"/>
		<path class="st3" d="M522.8,352.4c-4.5,15.4-10.4,29.5-17.8,42.8c-28.6,51.5-70.7,87.1-126.1,106.9c-0.9,0.3-1.9,0.7-2.8,1
			c-4.5,1-8.4-1.1-9.6-5c-1.1-3.8,0.8-7.2,5.1-9c9.2-3.8,18.7-7.1,27.5-11.5c51.5-25.8,86.8-66.1,106.6-120.1c1.5-4,3.2-5.6,7.3-5.1
			C515.9,352.7,518.9,352.4,522.8,352.4z"/>
		<path class="st4" d="M181.1,290.8c0,12.9,0,25.8,0,38.6c-0.9,0.4-1.3,0.7-1.7,0.7c-13.1,0.1-11.1,1.5-11.2-10.4
			c-0.1-19.8-0.1-39.6,0-59.5c0-2.4-1.2-5.5,2.8-6.4c5.7-1.2,9.8-0.1,11.5,3.8c4.6,10.7,9.1,21.4,13.7,32c0.5,1.1,1.2,2.2,2.7,3.1
			c0-11.2-0.1-22.4,0.1-33.6c0-1.7,0.9-4.8,1.7-4.9c3.4-0.4,6.8-0.1,10.2,0.4c0.4,0.1,0.8,2.3,0.8,3.6c0,22.5,0,45,0.1,67.4
			c0,3.5-1.2,4.4-4.6,4.6c-5.5,0.4-8.6-1.1-10.7-6.7c-4.2-11.3-9.4-22.2-14.2-33.2C182,290.5,181.5,290.7,181.1,290.8z"/>
		<path class="st5" d="M549.6,299.1c0,5.7-0.3,10.6,0.2,15.5c0.1,1.1,2.6,2.8,4.1,2.9c5.6,0.3,11.3,0.2,17,0.1
			c3-0.1,4.3,1.1,4.1,4.1c-0.1,1.5-0.1,3,0,4.5c0.3,3.2-1.1,4.4-4.4,4.4c-9.7-0.1-19.3-0.2-29,0c-4,0.1-5.3-1.2-5.2-5.1
			c0.2-13.1,0.1-26.3,0.1-39.4c0-8.8,0.2-17.6-0.1-26.5c-0.1-4,1.2-5.8,5.3-5.7c9.5,0.1,19,0.1,28.5,0c6.6-0.1,4.3,4.7,4.8,8.1
			c0.5,3.9-1.1,5.4-5.1,5.2c-5.1-0.3-10.3,0.1-15.5-0.1c-3.3-0.1-4.7,1-4.8,4.5c-0.4,14.1-0.5,14.1,13.4,14.1c1.2,0,2.3,0,3.5,0
			c6.1,0,6.4,0.3,6.4,6.5c0,6.8,0,6.8-7,6.8C560.7,299.1,555.6,299.1,549.6,299.1z"/>
		<path class="st4" d="M27,291.8c0-6.7-0.2-13.3,0.1-20c0.4-10.1,8.9-18.1,18.9-18.2c9.9-0.1,18.8,8,19,18c0.3,13.6,0.3,27.3,0,40.9
			c-0.3,10.3-8.6,17.6-19.1,17.6c-10.4,0-18.4-7.5-18.8-17.9C26.7,305.5,26.9,298.6,27,291.8C27,291.8,27,291.8,27,291.8z
			 M52.2,292.4c0-6.1,0-12.3,0-18.4c0-4.1-2-6.9-6.2-6.9c-4.2,0-6.1,2.8-6.1,6.9c0,12.1,0,24.3,0,36.4c0,4.1,2.1,6.9,6.2,6.9
			c4.1,0,6.1-2.8,6.1-6.9C52.2,304.3,52.2,298.3,52.2,292.4z"/>
		<path class="st4" d="M486,292.9c0,6.5,0.1,13,0,19.5c-0.1,9.8-8,17.7-17.7,18.1c-10.8,0.4-19.9-6.7-20.2-16.9
			c-0.4-14.1-0.4-28.3,0-42.4c0.3-9.7,9.5-17.4,19.3-17.1c10.2,0.3,18.5,8.5,18.6,18.4C486.1,279.2,486,286.1,486,292.9z
			 M473.2,292.5c0-6.2,0-12.3,0-18.5c0-4.2-2.2-6.9-6.2-6.8c-4.1,0-6.1,2.8-6.1,7c0,12.1,0,24.3,0,36.4c0,4.2,2.2,6.9,6.2,6.8
			c4,0,6.1-2.8,6.1-7C473.1,304.5,473.2,298.5,473.2,292.5z"/>
		<path class="st6" d="M122,330.2c0-24.9-0.1-48.9,0.2-72.9c0-1.2,2.2-3.4,3.4-3.4c10.3-0.3,20.6-0.3,31-0.1c1.2,0,2.8,2.1,3.5,3.5
			c0.6,1.2,0.1,2.9,0.2,4.4c0.3,3.7-1.1,5.5-5.1,5.2c-5-0.3-10,0.1-15-0.1c-3.7-0.2-5.3,0.9-5.3,5c-0.1,13.8-0.3,13.8,13.4,13.8
			c0.5,0,1,0,1.5,0c8.6,0,10,1.6,8.1,10.3c-0.3,1.2-2.7,2.7-4.2,2.7c-6,0.3-12,0.1-18.4,0.1c0,6.1,0,11.8,0,18.6
			c6.3,0,12.5-0.1,18.8,0.1c2,0.1,5.4,0.7,5.6,1.5c0.6,3.4,0.2,6.9,0,10.4c0,0.3-1.4,0.8-2.1,0.8C145.8,330.2,134.2,330.2,122,330.2
			z"/>
		<path class="st7" d="M505.1,304.8c0,2.8-0.2,4.8,0,6.7c0.4,3.6,2.5,6,6.2,6c3.7,0,5.8-2.3,6.1-6c0.2-2.2,0.2-4.3,0-6.5
			c-0.3-3.7-2.3-5.6-6-6c-17.5-2.2-26.1-22-15.9-36.7c5.2-7.4,14.6-10.3,23-6.9c8.3,3.3,13.6,12.7,11.9,21.4c-0.2,1.2-1.8,2.5-3,3
			c-1.5,0.5-3.3,0.1-4.9,0.2c-3.5,0.3-5.2-1.1-5-4.9c0.1-1.7-0.1-4.3-1.1-5.1c-1.9-1.4-4.9-2.9-6.8-2.3c-5.7,1.8-4.4,7.1-4.3,11.4
			c0.1,3.8,2.1,6.3,6.1,6.5c9.1,0.5,16.1,4.7,18.2,13.6c2.3,9.3,2.8,18.9-5.4,26.4c-5.9,5.4-15.3,6.5-22.3,2.5
			c-7.1-4.1-11.4-13.3-9.6-20.9c0.2-1,1.6-2.3,2.5-2.4C498,304.7,501.3,304.8,505.1,304.8z"/>
		<path class="st8" d="M86.1,298.7c0,10.6,0,20.7,0,30.7c-0.9,0.4-1.4,0.7-1.8,0.7c-12.9,0.1-11.1,1.5-11.1-10.5
			c-0.1-20,0.1-40-0.1-60c0-4.6,1.6-6.3,6-6.1c3.5,0.2,7,0.2,10.5,0c16.2-1,26.2,8.1,24.2,27.2c-1.1,10.6-8.5,17.5-19.2,17.9
			C91.9,298.8,89.2,298.7,86.1,298.7z M86.2,276.1c0,9.9,0.3,10.2,8.2,9.5c5-0.4,6.5-3,6.5-10.3c-0.1-6.6-2.2-8.1-9.3-8.6
			c-7-0.5-5.2,4.2-5.4,7.9C86.1,275.1,86.2,275.6,86.2,276.1z"/>
		<path class="st6" d="M396.8,304.8c1.7,9.1,0,16.4-6.8,21.8c-6.1,4.9-13,5.2-19.8,2.2c-7.7-3.4-11.2-10-11.1-18.5
			c0.1-12.2,0-24.3,0-36.5c0-11.6,8.8-20.3,19.8-19.8c11.4,0.5,19.7,10.3,18.6,22.1c-0.2,2.7-1.2,4-4,3.8c-1.5-0.1-3-0.1-4.5,0
			c-3.4,0.2-4.9-1.3-4.7-4.7c0.3-4.4-1.1-7.7-6-8.1c-3.9-0.3-6.4,3.1-6.4,8.4c0,11.2,0,22.3,0,33.5c0,5.4,2.5,8.8,6.3,8.5
			c4.8-0.4,6.5-3.6,6.1-8c-0.3-3.8,1.5-5.1,5.1-4.8C391.8,304.9,394.1,304.8,396.8,304.8z"/>
		<path class="st9" d="M403.4,292.2c0-11,0.2-22-0.1-33c-0.2-5.5,3.1-5.3,6.7-5.3c3.7-0.1,6.7,0.1,6.7,5.4c-0.2,17.5,0,35-0.2,52.4
			c-0.1,4.5,1.1,6.4,5.8,6c5.1-0.4,10.3,0,15.5-0.1c3-0.1,4.3,1.2,4.1,4.1c-0.1,1.7-0.1,3.3,0,5c0.2,2.7-0.9,3.9-3.8,3.9
			c-10.3-0.1-20.6-0.1-31,0c-3.9,0.1-3.7-2.4-3.7-5C403.4,314.5,403.4,303.3,403.4,292.2z"/>
		<path class="st10" d="M148.2,355.7c1.2,0.9,4,2.3,5.5,4.5c2.7,4,4.6,8.4,6.7,12.8c2.2,4.5,0.8,9-3.1,11.2c-4,2.2-8.4,0.9-11-3.5
			c-2.5-4.3-4.9-8.7-6.9-13.2C136.7,361.5,140.4,355.7,148.2,355.7z"/>
		<path class="st11" d="M456.6,186.2c0.9,0.7,3.6,1.7,4.9,3.7c2.9,4.2,5.4,8.7,7.7,13.3c2.3,4.5,0.8,9-3.2,11.1
			c-4,2.1-8.4,0.7-11-3.7c-2.5-4.1-5-8.2-7.1-12.5C444.9,192.3,448.6,186.1,456.6,186.2z"/>
		<path class="st12" d="M303.7,507.7c-2.3,1.8-3.7,2.9-5.1,4.1c-1-1.6-2.9-3.2-2.8-4.7c0.1-1.5,2.1-2.9,3.3-4.3
			C300.4,504.1,301.7,505.5,303.7,507.7z"/>
		<path class="st13" d="M52.2,292.4c0,6,0,12,0,17.9c0,4.1-2,6.9-6.1,6.9c-4.1,0-6.2-2.8-6.2-6.9c0-12.1,0-24.3,0-36.4
			c0-4.1,2-6.9,6.1-6.9c4.2,0,6.2,2.7,6.2,6.9C52.2,280.1,52.2,286.2,52.2,292.4z"/>
		<path class="st13" d="M473.2,292.5c0,6,0,12,0,18c0,4.2-2.1,7-6.1,7c-4,0-6.2-2.6-6.2-6.8c0-12.1,0-24.3,0-36.4c0-4.2,2-7,6.1-7
			c4,0,6.3,2.6,6.2,6.8C473.1,280.2,473.2,286.4,473.2,292.5z"/>
		<path class="st14" d="M86.2,276.1c0-0.5,0-1,0-1.5c0.2-3.7-1.6-8.3,5.4-7.9c7.1,0.5,9.2,2,9.3,8.6c0.1,7.3-1.5,9.9-6.5,10.3
			C86.4,286.3,86.2,286,86.2,276.1z"/>
	</g>
</g>
</svg>
