<?xml version="1.0" encoding="utf-8"?>
<!-- Generator: Adobe Illustrator 21.0.0, SVG Export Plug-In . SVG Version: 6.00 Build 0)  -->
<svg version="1.1" id="Layer_1" xmlns="http://www.w3.org/2000/svg" xmlns:xlink="http://www.w3.org/1999/xlink" x="0px" y="0px"
	 viewBox="0 0 270.6 237.2" style="enable-background:new 0 0 270.6 237.2;" xml:space="preserve">
<style type="text/css">
	.st0{fill:#363636;}
</style>
<g>
	<g>
		<path class="st0" d="M106.7,103.7c-0.1,0.7-0.2,1.4-0.2,2.1c0,23.8,0,47.7,0.1,71.5c0,2.3-0.7,3.2-3,2.9c-1.7-0.2-3.5-0.2-5.2,0
			c-2.1,0.2-2.5-0.7-2.5-2.6c0-35.3,0-70.6,0-106c0-2.1,0.7-2.8,2.7-2.7c7.1,0.3,5.4-1.2,8.3,5.7c9.5,22.3,19,44.6,28.6,66.8
			c0.3,0.7,0.9,1.2,1.4,1.8c0.5-0.6,1.3-1.2,1.6-2c9.8-23.3,19.5-46.5,29.2-69.8c0.8-1.9,1.8-2.8,3.9-2.5c0.7,0.1,1.5,0.1,2.2,0.1
			c5.7,0.1,5.7,0.1,5.7,6c0,33.9,0,67.8,0,101.7c0,3.4,0,3.4-3.4,3.4c-1.6,0-3.2-0.1-4.7,0c-2,0.2-2.7-0.6-2.6-2.5
			c0.1-5.2,0-10.5,0-15.7c0-19.7,0-39.3,0-59c0-0.8-0.5-1.6-0.7-2.3c-0.5,0.7-1.2,1.3-1.5,2c-7.8,18.4-15.6,36.8-23.3,55.3
			c-0.7,1.8-1.7,2.6-3.7,2.6c-7.6,0.1-7.6,0.1-10.6-6.9c-6.7-16-13.4-31.9-20.2-47.9c-0.3-0.8-0.8-1.5-1.2-2.2
			C107.3,103.6,107,103.7,106.7,103.7z"/>
		<path class="st0" d="M136.7,42.1c36.2,0,72.3,0,108.5,0c3.9,0,3.9,0,3.8,3.7c-0.1,6.9-0.1,6.9-7,6.9c-54.7,0-109.3,0-164,0
			c-3.6,0-3.5,0-3.5,3.6c0,40.2,0,80.5,0.1,120.7c0,2.6-0.8,3.4-3.3,3.2c-1.6-0.2-3.3-0.1-5,0c-1.9,0.1-2.6-0.7-2.4-2.5
			c0-0.5,0-1,0-1.5c0-40.2,0-80.5,0.1-120.7c0-2.4-0.7-3-3-2.9c-11.6,0.1-23.2,0.1-34.7,0.2c-2,0-2.7-0.6-2.6-2.6c0.1-2,0.1-4,0-6
			c0-1.5,0.6-2.2,2.1-2.1c0.5,0,1,0,1.5,0C63.7,42.1,100.2,42.1,136.7,42.1z"/>
		<path class="st0" d="M136.5,206.1c-36.3,0-72.7,0-109,0c-3.5,0-3.5,0-3.5-3.6c0-7.2,0-7.2,7.3-7.2c55.1,0,110.2,0,165.2,0
			c3.4,0,3.4,0,3.4-3.4c0-27.4-0.1-54.8-0.2-82.2c0-12.6-0.1-25.2-0.3-37.7c0-2.4,0.7-3.2,3-2.9c1.7,0.2,3.5,0.1,5.2,0
			c1.9-0.1,2.5,0.7,2.4,2.5c-0.1,1.4,0,2.8,0,4.2c0,38.8,0,77.7,0,116.5c0,2.4,0.6,3.2,3.1,3.2c10.9-0.1,21.8,0,32.7-0.1
			c2.3,0,3.2,0.7,2.9,3c-0.2,2,0.1,4-0.1,6c-0.1,0.7-1,1.3-1.7,1.8c-0.3,0.2-1,0-1.5,0C209.1,206.1,172.8,206.1,136.5,206.1z"/>
	</g>
</g>
</svg>
